<?xml version="1.0" encoding="UTF-8"?>
<svg id="Isolation_Mode" xmlns="http://www.w3.org/2000/svg" viewBox="0 0 628.47 432.33">
  <defs>
    <style>.cls-1 {fill: #fdf7e8;}</style>
  </defs>
  <path class="cls-1" d="M251.06,40.03v-5.63c0-19,15.4-34.4,34.4-34.4h0c19,0,34.4,15.4,34.4,34.4v5.63c0,19-15.4,34.4-34.4,34.4h0c-19,0-34.4-15.4-34.4-34.4ZM251.06,411.59V116.15h68.8v295.44h-68.8Z"/>
  <path class="cls-1" d="M120.52,411.52c-23.11,0-45.26-4.14-66.47-12.4-21.21-8.27-39.23-20.48-54.05-36.65l25.35-49.05c15.86,14.29,31.55,24.81,47.07,31.57,15.52,6.77,30.69,10.15,45.52,10.15,13.45,0,24.22-2.54,32.33-7.61,8.1-5.07,12.16-12.69,12.16-22.84,0-7.42-2.25-13.07-6.72-16.97-4.49-3.89-10.96-7.24-19.4-10.03-8.46-2.78-18.71-6.03-30.78-9.73-20-6.68-36.65-13.45-49.92-20.32-13.28-6.86-23.36-15.4-30.26-25.6-6.9-10.2-10.35-23.28-10.35-39.24,0-19.29,4.57-35.89,13.71-49.81,9.13-13.92,21.89-24.77,38.28-32.56,16.37-7.79,35.6-11.69,57.67-11.69,19.31,0,37.58,3.29,54.83,9.87,17.24,6.58,32.93,17.2,47.07,31.86l-28.45,48.49c-13.45-12.03-26.38-20.77-38.8-26.22-12.41-5.44-25-8.17-37.76-8.17-7.24,0-14.05.92-20.43,2.77-6.39,1.85-11.56,4.91-15.52,9.16-3.97,4.26-5.95,10.26-5.95,18.03,0,6.66,1.81,12.02,5.43,16.09,3.62,4.07,9.13,7.58,16.55,10.54,7.41,2.96,16.46,6.29,27.16,9.99,21.73,6.66,40,13.42,54.83,20.26,14.82,6.85,26.12,15.44,33.88,25.81,7.76,10.36,11.64,24.41,11.64,42.17,0,28.86-9.83,51.43-29.48,67.71-19.66,16.28-46.04,24.41-79.14,24.41Z"/>
  <path class="cls-1" d="M604.35,339.03l.29-.45.58-.91.05-.08c18.97-30.14,27.01-67.18,21.51-99.32-1.95-11.54-5.5-23.35-10.54-35.09-24.9-57.96-73.32-90.08-140.02-92.89-60.91-2.57-109.27,23.66-143.75,77.86l-6.38,10.01,47.61,28.64,11.62-14.7c2.18-2.77,4.17-5.3,6.24-7.78,20.21-24.4,50.64-37.58,83.63-36.23,32.91,1.33,62.19,16.95,80.32,42.84,21.14,30.19,20.11,69.82-1.73,94.61-4.69-7.78-9.55-15.8-14.89-23.52-35.28-50.8-83.07-68.42-142.05-52.38-21.57,5.88-38.94,19.26-48.91,37.66-10.01,18.43-11.87,40.53-5.25,62.24,8.3,27.08,26.05,47.76,52.74,61.46,43,22,98.95,21.92,146.91-.03l29.03,41.37,49.04-33.08-30.21-42.13c5.38-5.77,10.13-11.84,14.15-18.09ZM421.92,338.44c-8.81-4.95-17.68-14.61-23.73-25.83-2.7-5.02-3.31-9.71-1.8-13.91,1.84-5.07,6.72-9.35,13.74-12.06,8.59-3.29,17.18-4.95,25.53-4.95,18.85,0,36.14,8.63,48.68,24.29,7.14,8.92,13.4,19.08,20.02,29.84.96,1.57,1.94,3.16,2.93,4.75-34.35,12.37-60.85,11.66-85.37-2.13Z"/>
</svg>